<svg width="240" height="159" viewBox="0 0 240 159" fill="none" xmlns="http://www.w3.org/2000/svg">
<path fill-rule="evenodd" clip-rule="evenodd" d="M185.933 0C193.209 0.000148439 199.108 5.89915 199.108 13.1758V144.933C199.108 152.209 193.209 158.108 185.933 158.108H54.1758C46.8992 158.108 41.0002 152.209 41 144.933V13.1758C41 5.89906 46.8991 2.12219e-07 54.1758 0H185.933ZM157.644 41.9844C152.767 41.9844 148.387 42.8605 144.505 44.6123C140.622 46.3405 137.544 48.7676 135.271 51.8926C132.999 55.0175 131.862 58.6751 131.862 62.8652C131.862 67.9314 133.555 72.0034 136.94 75.0811C140.35 78.1587 144.966 80.491 150.79 82.0771L159.384 84.4209C161.988 85.1075 164.32 85.9002 166.38 86.7998C168.463 87.6994 170.108 88.836 171.315 90.209C172.546 91.5821 173.162 93.3457 173.162 95.5C173.162 97.8674 172.464 99.9393 171.067 101.715C169.671 103.467 167.753 104.84 165.314 105.834C162.9 106.805 160.141 107.29 157.04 107.29C154.223 107.29 151.631 106.875 149.264 106.047C146.92 105.195 144.99 103.904 143.475 102.176C141.983 100.424 141.131 98.2341 140.918 95.6064H129.909C130.146 99.9862 131.39 103.775 133.639 106.971C135.888 110.143 139.001 112.593 142.978 114.321C146.955 116.05 151.666 116.913 157.111 116.913C162.793 116.913 167.635 115.99 171.636 114.144C175.66 112.297 178.726 109.776 180.833 106.58C182.964 103.384 184.029 99.7258 184.029 95.6064C184.029 92.3396 183.378 89.5341 182.076 87.1904C180.798 84.8468 179.116 82.882 177.033 81.2959C174.95 79.7097 172.688 78.4306 170.25 77.46C167.812 76.4894 165.432 75.7205 163.112 75.1523L156.011 73.3057C154.59 72.9505 153.11 72.5006 151.571 71.9561C150.033 71.3879 148.589 70.6898 147.239 69.8613C145.914 69.0091 144.836 67.9549 144.008 66.7002C143.203 65.4455 142.8 63.9538 142.8 62.2256C142.8 60.1661 143.393 58.3314 144.576 56.7217C145.784 55.0883 147.476 53.81 149.654 52.8867C151.832 51.9398 154.413 51.4658 157.396 51.4658C161.562 51.4658 165.018 52.4012 167.765 54.2715C170.511 56.1181 172.073 58.7223 172.452 62.084H183.034C182.939 58.1777 181.803 54.7215 179.625 51.7148C177.447 48.6846 174.464 46.3054 170.677 44.5771C166.913 42.8489 162.568 41.9844 157.644 41.9844ZM89.6133 41.9844C83.3397 41.9844 77.7406 43.4876 72.8164 46.4941C67.8922 49.4771 64.0089 53.7625 61.168 59.3496C58.3271 64.913 56.9072 71.5777 56.9072 79.3428C56.9073 87.084 58.3157 93.748 61.1328 99.335C63.9736 104.922 67.8562 109.219 72.7803 112.226C77.7045 115.209 83.3159 116.7 89.6133 116.7C93.6141 116.7 97.3071 116.108 100.692 114.925C104.078 113.741 107.085 112.072 109.713 109.918C112.364 107.74 114.53 105.159 116.211 102.176C117.915 99.1692 119.063 95.8784 119.655 92.3037L108.576 92.2686C108.126 94.5885 107.31 96.6481 106.126 98.4473C104.966 100.223 103.545 101.726 101.864 102.957C100.183 104.188 98.3011 105.123 96.2178 105.763C94.1582 106.378 91.9799 106.687 89.6836 106.687C85.5409 106.686 81.8123 105.645 78.498 103.562C75.1837 101.478 72.568 98.4 70.6504 94.3281C68.7565 90.2562 67.8086 85.2612 67.8086 79.3428C67.8086 73.4716 68.7565 68.4997 70.6504 64.4277C72.568 60.3558 75.1722 57.2662 78.4629 55.1592C81.7772 53.0523 85.5295 51.999 89.7197 51.999C92.0397 51.999 94.2295 52.3179 96.2891 52.957C98.3724 53.5962 100.255 54.5441 101.936 55.7988C103.616 57.0535 105.037 58.5798 106.197 60.3789C107.357 62.178 108.15 64.2617 108.576 66.6289H119.655C119.04 62.7229 117.856 59.2548 116.104 56.2246C114.353 53.1707 112.139 50.5904 109.464 48.4834C106.789 46.3527 103.77 44.7423 100.408 43.6533C97.0703 42.5407 93.472 41.9844 89.6133 41.9844Z" fill="#363636"/>
</svg>
