<svg width="159" height="159" viewBox="0 0 159 159" fill="none" xmlns="http://www.w3.org/2000/svg">
<path d="M144.933 0C152.209 0.000148439 158.108 5.89915 158.108 13.1758V144.933C158.108 152.209 152.209 158.108 144.933 158.108H13.1758C5.89916 158.108 0.000156893 152.209 0 144.933V13.1758C0 5.89906 5.89906 2.12219e-07 13.1758 0H144.933ZM116.644 41.9844C111.767 41.9844 107.387 42.8605 103.505 44.6123C99.6223 46.3405 96.5442 48.7676 94.2715 51.8926C91.999 55.0175 90.8623 58.6751 90.8623 62.8652C90.8623 67.9314 92.5552 72.0034 95.9404 75.0811C99.3495 78.1587 103.966 80.491 109.79 82.0771L118.384 84.4209C120.988 85.1075 123.32 85.9002 125.38 86.7998C127.463 87.6994 129.108 88.836 130.315 90.209C131.546 91.5821 132.162 93.3457 132.162 95.5C132.162 97.8674 131.464 99.9393 130.067 101.715C128.671 103.467 126.753 104.84 124.314 105.834C121.9 106.805 119.141 107.29 116.04 107.29C113.223 107.29 110.631 106.875 108.264 106.047C105.92 105.195 103.99 103.904 102.475 102.176C100.983 100.424 100.131 98.2341 99.918 95.6064H88.9092C89.1459 99.9862 90.3896 103.775 92.6387 106.971C94.8877 110.143 98.0005 112.593 101.978 114.321C105.955 116.05 110.666 116.913 116.111 116.913C121.793 116.913 126.635 115.99 130.636 114.144C134.66 112.297 137.726 109.776 139.833 106.58C141.964 103.384 143.029 99.7258 143.029 95.6064C143.029 92.3396 142.378 89.5341 141.076 87.1904C139.798 84.8468 138.116 82.882 136.033 81.2959C133.95 79.7097 131.688 78.4306 129.25 77.46C126.812 76.4894 124.432 75.7205 122.112 75.1523L115.011 73.3057C113.59 72.9505 112.11 72.5006 110.571 71.9561C109.033 71.3879 107.589 70.6898 106.239 69.8613C104.914 69.0091 103.836 67.9549 103.008 66.7002C102.203 65.4455 101.8 63.9538 101.8 62.2256C101.8 60.1661 102.393 58.3314 103.576 56.7217C104.784 55.0883 106.476 53.81 108.654 52.8867C110.832 51.9398 113.413 51.4658 116.396 51.4658C120.562 51.4658 124.018 52.4012 126.765 54.2715C129.511 56.1181 131.073 58.7223 131.452 62.084H142.034C141.939 58.1777 140.803 54.7215 138.625 51.7148C136.447 48.6846 133.464 46.3054 129.677 44.5771C125.913 42.8489 121.568 41.9844 116.644 41.9844ZM48.6133 41.9844C42.3397 41.9844 36.7406 43.4876 31.8164 46.4941C26.8922 49.4771 23.0089 53.7625 20.168 59.3496C17.3271 64.913 15.9072 71.5777 15.9072 79.3428C15.9073 87.084 17.3157 93.748 20.1328 99.335C22.9736 104.922 26.8562 109.219 31.7803 112.226C36.7045 115.209 42.3159 116.7 48.6133 116.7C52.6141 116.7 56.3071 116.108 59.6924 114.925C63.0778 113.741 66.085 112.072 68.7129 109.918C71.3643 107.74 73.5301 105.159 75.2109 102.176C76.9154 99.1692 78.0634 95.8784 78.6553 92.3037L67.5762 92.2686C67.1264 94.5885 66.3096 96.6481 65.126 98.4473C63.966 100.223 62.5451 101.726 60.8643 102.957C59.1834 104.188 57.3011 105.123 55.2178 105.763C53.1582 106.378 50.9799 106.687 48.6836 106.687C44.5409 106.686 40.8123 105.645 37.498 103.562C34.1837 101.478 31.568 98.4 29.6504 94.3281C27.7565 90.2562 26.8086 85.2612 26.8086 79.3428C26.8086 73.4716 27.7565 68.4997 29.6504 64.4277C31.568 60.3558 34.1722 57.2662 37.4629 55.1592C40.7772 53.0523 44.5295 51.999 48.7197 51.999C51.0397 51.999 53.2295 52.3179 55.2891 52.957C57.3724 53.5962 59.2547 54.5441 60.9355 55.7988C62.6163 57.0535 64.0373 58.5798 65.1973 60.3789C66.3572 62.178 67.15 64.2617 67.5762 66.6289H78.6553C78.0397 62.7229 76.8563 59.2548 75.1045 56.2246C73.3526 53.1707 71.139 50.5904 68.4639 48.4834C65.7887 46.3527 62.7699 44.7423 59.4082 43.6533C56.0703 42.5407 52.472 41.9844 48.6133 41.9844Z" fill="#363636"/>
</svg>
