<svg width="128" height="24" viewBox="0 0 128 24" fill="none" xmlns="http://www.w3.org/2000/svg">
<rect x="29" y="8" width="9" height="10" rx="1" fill="#AF2031"/>
<rect x="47" y="9" width="9" height="9" rx="1" fill="#AF2031"/>
<path d="M120 0C124.418 0 128 3.58172 128 8V16C128 20.4183 124.418 24 120 24H8C3.58172 24 0 20.4183 0 16V8C1.28855e-07 3.58172 3.58172 0 8 0H120ZM92.6924 8.71191C92.1846 8.71191 91.7757 8.79732 91.4668 8.96777C91.1581 9.13462 90.9171 9.3301 90.7432 9.55371C90.5692 9.77741 90.4351 9.97409 90.3428 10.1445H90.21V8.81836H88.6543V20.0684H90.2471V15.7266H90.3428C90.4386 15.9005 90.5755 16.0997 90.7529 16.3232C90.9304 16.5469 91.1759 16.7423 91.4883 16.9092C91.8043 17.0761 92.211 17.1601 92.708 17.1602C93.3685 17.1602 93.9568 16.9907 94.4717 16.6533C94.9864 16.3124 95.3909 15.8276 95.6855 15.1992C95.9802 14.5671 96.1279 13.809 96.1279 12.9248C96.1279 12.0408 95.9788 11.2847 95.6807 10.6562C95.3859 10.0277 94.9794 9.54572 94.4609 9.21191C93.9425 8.87815 93.3528 8.71193 92.6924 8.71191ZM64.8545 5.94141C64.1231 5.94146 63.4661 6.0732 62.8838 6.33594C62.3015 6.59515 61.8399 6.95908 61.499 7.42773C61.1581 7.89648 60.9873 8.44567 60.9873 9.07422C60.9874 9.83388 61.2414 10.4447 61.749 10.9062C62.2604 11.3679 62.9536 11.7181 63.8271 11.9561L65.1162 12.3076C65.5066 12.4106 65.8562 12.5292 66.165 12.6641C66.4775 12.799 66.7242 12.9698 66.9053 13.1758C67.0899 13.3817 67.1826 13.6458 67.1826 13.9688C67.1826 14.3239 67.0777 14.635 66.8682 14.9014C66.6587 15.164 66.3715 15.3704 66.0059 15.5195C65.6437 15.6651 65.2297 15.7373 64.7646 15.7373C64.3421 15.7373 63.9528 15.6751 63.5977 15.5508C63.2462 15.423 62.9567 15.2298 62.7295 14.9707C62.5058 14.708 62.3777 14.3794 62.3457 13.9854H60.6943C60.7299 14.6421 60.9167 15.2101 61.2539 15.6895C61.5913 16.1653 62.0587 16.5328 62.6553 16.792C63.2518 17.0512 63.9587 17.1807 64.7754 17.1807C65.6275 17.1806 66.354 17.0426 66.9541 16.7656C67.5576 16.4887 68.017 16.1102 68.333 15.6309C68.6526 15.1515 68.8125 14.6031 68.8125 13.9854C68.8125 13.4953 68.7148 13.0742 68.5195 12.7227C68.3279 12.3713 68.0759 12.0767 67.7637 11.8389C67.4512 11.6009 67.1119 11.4083 66.7461 11.2627C66.3803 11.1171 66.0228 11.0022 65.6748 10.917L64.6104 10.6396C64.3974 10.5864 64.1751 10.5191 63.9443 10.4375C63.7135 10.3523 63.4964 10.2473 63.2939 10.123C63.0953 9.99529 62.9338 9.83744 62.8096 9.64941C62.6888 9.4612 62.6279 9.23677 62.6279 8.97754C62.628 8.6688 62.7171 8.39369 62.8945 8.15234C63.0756 7.90736 63.3296 7.71564 63.6562 7.57715C63.9829 7.43513 64.37 7.36428 64.8174 7.36426C65.4424 7.36426 65.9611 7.50462 66.373 7.78516C66.7849 8.06214 67.0194 8.45284 67.0762 8.95703H68.6631C68.6489 8.37116 68.479 7.85233 68.1523 7.40137C67.8256 6.94682 67.3778 6.59029 66.8096 6.33105C66.2449 6.07183 65.5931 5.94141 64.8545 5.94141ZM74.082 8.71191C73.3115 8.71192 72.6424 8.89136 72.0742 9.25C71.5061 9.60861 71.0654 10.107 70.7529 10.7461C70.4404 11.3817 70.2842 12.1154 70.2842 12.9463C70.2842 13.7664 70.4369 14.4943 70.7422 15.1299C71.0476 15.7655 71.4846 16.2647 72.0527 16.627C72.6244 16.9856 73.3059 17.165 74.0977 17.165C74.744 17.165 75.3077 17.0465 75.7871 16.8086C76.2699 16.5707 76.6548 16.2435 76.9424 15.8281C77.23 15.4126 77.4022 14.9403 77.459 14.4111H75.9092C75.8417 14.7059 75.7232 14.9585 75.5527 15.168C75.3858 15.3775 75.1773 15.5387 74.9287 15.6523C74.6838 15.7623 74.4101 15.8174 74.1084 15.8174C73.6577 15.8173 73.2653 15.6987 72.9316 15.4609C72.6014 15.223 72.3452 14.8873 72.1641 14.4541C71.983 14.0209 71.8926 13.5057 71.8926 12.9092C71.8926 12.3268 71.9853 11.8226 72.1699 11.3965C72.3546 10.9668 72.6121 10.6361 72.9424 10.4053C73.276 10.1711 73.6648 10.0538 74.1084 10.0537C74.6162 10.0537 75.0214 10.1927 75.3232 10.4697C75.6285 10.7466 75.8239 11.0766 75.9092 11.46H77.459C77.4021 10.9097 77.2227 10.4285 76.9209 10.0166C76.6226 9.60477 76.2306 9.28485 75.7441 9.05762C75.2576 8.8268 74.7035 8.71191 74.082 8.71191ZM9.15234 5.94141C8.21134 5.94141 7.37142 6.16722 6.63281 6.61816C5.89418 7.06561 5.31188 7.70881 4.88574 8.54688C4.45968 9.38135 4.24609 10.3812 4.24609 11.5459C4.24615 12.7067 4.45751 13.7061 4.87988 14.5439C5.30592 15.3818 5.88855 16.0266 6.62695 16.4775C7.36559 16.925 8.20774 17.1494 9.15234 17.1494C9.75244 17.1494 10.3067 17.0604 10.8145 16.8828C11.3221 16.7053 11.7729 16.4549 12.167 16.1318C12.5646 15.8052 12.8895 15.418 13.1416 14.9707C13.3973 14.5197 13.5694 14.0255 13.6582 13.4893L11.9971 13.4844C11.9296 13.8324 11.8065 14.1412 11.6289 14.4111C11.4549 14.6774 11.2423 14.9033 10.9902 15.0879C10.7381 15.2725 10.4551 15.4129 10.1426 15.5088C9.83383 15.601 9.5073 15.6474 9.16309 15.6475C8.54183 15.6475 7.98239 15.491 7.48535 15.1787C6.98819 14.8662 6.59526 14.4038 6.30762 13.793C6.02368 13.1823 5.88188 12.4333 5.88184 11.5459C5.88184 10.6654 6.02364 9.91932 6.30762 9.30859C6.59524 8.69785 6.98594 8.23402 7.47949 7.91797C7.97659 7.60196 8.53952 7.44438 9.16797 7.44434C9.51589 7.44434 9.84444 7.49206 10.1533 7.58789C10.4658 7.68377 10.7488 7.82546 11.001 8.01367C11.253 8.20186 11.4657 8.43134 11.6396 8.70117C11.8136 8.97104 11.9332 9.28358 11.9971 9.63867H13.6582C13.5659 9.05285 13.3887 8.5326 13.126 8.07812C12.8632 7.62012 12.5311 7.23301 12.1299 6.91699C11.7286 6.59739 11.2757 6.35573 10.7715 6.19238C10.2708 6.02549 9.73114 5.94142 9.15234 5.94141ZM98.4609 6.8584V8.81836H97.2627V10.0967H98.4609V14.9277C98.4609 15.4213 98.5732 15.8315 98.7969 16.1582C99.0206 16.4849 99.3136 16.7266 99.6758 16.8828C100.038 17.039 100.429 17.1135 100.848 17.1064C101.103 17.1029 101.316 17.082 101.486 17.043C101.657 17.0075 101.789 16.972 101.881 16.9365L101.593 15.6201C101.54 15.6308 101.465 15.6454 101.369 15.6631C101.273 15.6808 101.162 15.6894 101.034 15.6895C100.86 15.6895 100.698 15.6626 100.549 15.6094C100.404 15.5526 100.285 15.4482 100.192 15.2959C100.1 15.1396 100.054 14.9066 100.054 14.5977V10.0967H101.731V8.81836H100.054V6.8584H98.4609ZM103.493 8.81836V14.0225C103.493 14.6971 103.607 15.2636 103.834 15.7217C104.065 16.1798 104.381 16.5264 104.782 16.7607C105.187 16.9915 105.652 17.1064 106.178 17.1064C106.792 17.1064 107.306 16.9624 107.718 16.6748C108.133 16.3836 108.435 16.0197 108.623 15.583H108.708V17H110.274V8.81836H108.677V13.6064C108.68 14.0716 108.583 14.456 108.384 14.7578C108.188 15.0596 107.941 15.2845 107.643 15.4336C107.348 15.5826 107.052 15.6571 106.754 15.6572C106.26 15.6572 105.859 15.4924 105.55 15.1621C105.241 14.8319 105.086 14.3884 105.086 13.8311V8.81836H103.493ZM15.5 6.09082V17H17.0928V12.1416C17.0928 11.7086 17.1769 11.3395 17.3438 11.0342C17.5142 10.7253 17.7464 10.4908 18.041 10.3311C18.3393 10.1713 18.6773 10.0908 19.0537 10.0908C19.6039 10.0909 20.0339 10.2581 20.3428 10.5918C20.6516 10.922 20.8056 11.3874 20.8057 11.9873V17H22.3984V11.7959C22.3984 11.1141 22.2812 10.5454 22.0469 10.0908C21.8161 9.63289 21.4889 9.28838 21.0664 9.05762C20.6475 8.82694 20.1575 8.71193 19.5967 8.71191C18.961 8.71191 18.4459 8.84135 18.0518 9.10059C17.6577 9.35975 17.3646 9.70927 17.1729 10.1494H17.0713V6.09082H15.5ZM28.2256 8.69531C27.7463 8.69536 27.3164 8.82346 26.9365 9.0791C26.5602 9.33122 26.2976 9.67787 26.1484 10.1182H26.0635V8.81836H24.5234V17H26.1162V12.0039C26.1162 11.6489 26.2017 11.3326 26.3721 11.0557C26.5425 10.7752 26.7734 10.5566 27.0645 10.4004C27.3592 10.2406 27.6949 10.1602 28.0713 10.1602C28.2346 10.1602 28.3982 10.1734 28.5615 10.1982C28.7248 10.2195 28.8384 10.2391 28.9023 10.2568V8.7334C28.8242 8.72274 28.7156 8.71316 28.5771 8.70605C28.4423 8.69896 28.325 8.69531 28.2256 8.69531ZM33.5 9C31.2909 9 29.5 10.7909 29.5 13C29.5 15.2091 31.2909 17 33.5 17C35.7091 17 37.5 15.2091 37.5 13C37.5 10.7909 35.7091 9.00001 33.5 9ZM43.0684 8.71191C42.4543 8.71196 41.9448 8.84284 41.54 9.10547C41.1388 9.36821 40.8435 9.71627 40.6553 10.1494H40.5547V8.81836H39.0254V17H40.6182V12.1416C40.6182 11.7086 40.7 11.3394 40.8633 11.0342C41.0302 10.7252 41.2559 10.4909 41.54 10.3311C41.8277 10.1713 42.1561 10.0908 42.5254 10.0908C43.0652 10.0908 43.4899 10.2603 43.7988 10.5977C44.1075 10.9314 44.2617 11.3946 44.2617 11.9873V17H45.8545V11.7959C45.8545 11.1213 45.7395 10.5547 45.5088 10.0967C45.278 9.63858 44.9522 9.2943 44.5332 9.06348C44.1142 8.82915 43.6258 8.71191 43.0684 8.71191ZM51.5 9C49.2909 9 47.5 10.7909 47.5 13C47.5 15.2091 49.2909 17 51.5 17C53.7091 17 55.5 15.2091 55.5 13C55.5 10.7909 53.7091 9.00001 51.5 9ZM82.8643 8.69531C82.385 8.69536 81.9551 8.82346 81.5752 9.0791C81.1988 9.33122 80.9362 9.67787 80.7871 10.1182H80.7021V8.81836H79.1621V17H80.7549V12.0039C80.7549 11.6489 80.8404 11.3326 81.0107 11.0557C81.1812 10.7752 81.412 10.5566 81.7031 10.4004C81.9979 10.2406 82.3336 10.1602 82.71 10.1602C82.8733 10.1602 83.0368 10.1734 83.2002 10.1982C83.3635 10.2195 83.4771 10.2391 83.541 10.2568V8.7334C83.4629 8.72274 83.3543 8.71316 83.2158 8.70605C83.081 8.69896 82.9636 8.69531 82.8643 8.69531ZM84.9189 8.81836V17H86.5117V8.81836H84.9189ZM121.012 8.71191C120.422 8.71191 119.914 8.84276 119.488 9.10547C119.062 9.36466 118.751 9.71272 118.556 10.1494H118.471C118.293 9.70218 118.018 9.35033 117.646 9.09473C117.276 8.83905 116.817 8.71191 116.271 8.71191C115.731 8.71198 115.268 8.83926 114.881 9.09473C114.494 9.34681 114.214 9.69854 114.044 10.1494H113.943V8.81836H112.414V17H114.007V11.9561C114.007 11.5867 114.084 11.261 114.236 10.9805C114.393 10.7001 114.597 10.4814 114.849 10.3252C115.104 10.1655 115.383 10.086 115.685 10.0859C116.128 10.0859 116.49 10.2213 116.767 10.4912C117.043 10.7611 117.182 11.1178 117.182 11.5615V17H118.77V11.7852C118.77 11.2881 118.913 10.8814 119.2 10.5654C119.488 10.2458 119.892 10.0859 120.41 10.0859C120.829 10.086 121.189 10.2105 121.491 10.459C121.793 10.7076 121.944 11.1092 121.944 11.6631V17H123.536V11.5137C123.536 10.5762 123.3 9.87438 122.828 9.40918C122.359 8.94406 121.754 8.71192 121.012 8.71191ZM33.5 9.96973C35.1736 9.96974 36.5303 11.3264 36.5303 13C36.5303 14.6736 35.1736 16.0303 33.5 16.0303C31.8264 16.0303 30.4697 14.6736 30.4697 13C30.4697 11.3264 31.8264 9.96973 33.5 9.96973ZM51.5 9.96973C53.1736 9.96974 54.5303 11.3264 54.5303 13C54.5303 14.6736 53.1736 16.0303 51.5 16.0303C49.8264 16.0303 48.4697 14.6736 48.4697 13C48.4697 11.3264 49.8264 9.96973 51.5 9.96973ZM92.3516 10.0645C92.8309 10.0645 93.2303 10.189 93.5498 10.4375C93.873 10.6861 94.1146 11.0254 94.2744 11.4551C94.4377 11.8847 94.5195 12.3695 94.5195 12.9092C94.5195 13.456 94.4354 13.948 94.2686 14.3848C94.1053 14.8212 93.8642 15.1673 93.5449 15.4229C93.2254 15.6749 92.8273 15.8017 92.3516 15.8018C91.8936 15.8018 91.5064 15.6808 91.1904 15.4395C90.8744 15.1944 90.6327 14.8551 90.4658 14.4219C90.2989 13.9887 90.2158 13.4844 90.2158 12.9092C90.2158 12.3412 90.2967 11.844 90.46 11.418C90.6233 10.9919 90.8637 10.6598 91.1797 10.4219C91.4993 10.1839 91.8899 10.0645 92.3516 10.0645ZM33.5 11.4238C32.6297 11.4238 31.9238 12.1297 31.9238 13C31.9238 13.8703 32.6297 14.5762 33.5 14.5762C34.3703 14.5762 35.0762 13.8703 35.0762 13C35.0762 12.1297 34.3703 11.4238 33.5 11.4238ZM50.167 11.667V14.333H52.833V11.667H50.167ZM85.7236 5.6543C85.4466 5.6543 85.2086 5.74831 85.0098 5.93652C84.8146 6.12113 84.7168 6.34475 84.7168 6.60742C84.7168 6.86654 84.8146 7.09016 85.0098 7.27832C85.2086 7.46298 85.4466 7.55566 85.7236 7.55566C86.0006 7.55566 86.2363 7.46297 86.4316 7.27832C86.6305 7.09011 86.7305 6.86665 86.7305 6.60742C86.7304 6.34471 86.6305 6.12114 86.4316 5.93652C86.2364 5.74843 86.0005 5.6543 85.7236 5.6543Z" fill="#2C2C2C"/>
</svg>
